<svg xmlns="http://www.w3.org/2000/svg" width="322" height="322"><line x1="10.032258064516128" y1="108.27272727272727" x2="7.612903225806451" y2="116" stroke="red" stroke-width="1" /><line x1="7.612903225806451" y1="116" x2="5.032258064516129" y2="126" stroke="red" stroke-width="1" /><line x1="5.032258064516129" y1="126" x2="3.096774193548387" y2="136" stroke="red" stroke-width="1" /><line x1="3.096774193548387" y1="136" x2="1.8064516129032255" y2="146" stroke="red" stroke-width="1" /><line x1="1.8064516129032255" y1="146" x2="1.1612903225806452" y2="156" stroke="red" stroke-width="1" /><line x1="1.1612903225806452" y1="166" x2="1.8064516129032255" y2="176" stroke="red" stroke-width="1" /><line x1="1.8064516129032255" y1="176" x2="3.096774193548387" y2="186" stroke="red" stroke-width="1" /><line x1="3.096774193548387" y1="186" x2="5.032258064516129" y2="196" stroke="red" stroke-width="1" /><line x1="5.032258064516129" y1="196" x2="7.612903225806451" y2="206" stroke="red" stroke-width="1" /><line x1="7.612903225806451" y1="206" x2="10.032258064516128" y2="213.72727272727275" stroke="red" stroke-width="1" /><line x1="19.103448275862068" y1="87.33333333333333" x2="14.96551724137931" y2="96" stroke="red" stroke-width="1" /><line x1="14.96551724137931" y1="96" x2="11.862068965517242" y2="103.27272727272727" stroke="red" stroke-width="1" /><line x1="11.862068965517242" y1="103.27272727272727" x2="10.032258064516128" y2="108.27272727272727" stroke="red" stroke-width="1" /><line x1="10.032258064516128" y1="213.72727272727275" x2="11.862068965517242" y2="218.72727272727275" stroke="red" stroke-width="1" /><line x1="11.862068965517242" y1="218.72727272727275" x2="14.96551724137931" y2="226" stroke="red" stroke-width="1" /><line x1="14.96551724137931" y1="226" x2="19.103448275862068" y2="234.66666666666669" stroke="red" stroke-width="1" /><line x1="29.88888888888889" y1="69.42105263157895" x2="25.629629629629626" y2="76" stroke="red" stroke-width="1" /><line x1="25.629629629629626" y1="76" x2="21.74074074074074" y2="82.33333333333333" stroke="red" stroke-width="1" /><line x1="21.74074074074074" y1="82.33333333333333" x2="19.103448275862068" y2="87.33333333333333" stroke="red" stroke-width="1" /><line x1="19.103448275862068" y1="234.66666666666669" x2="21.74074074074074" y2="239.66666666666669" stroke="red" stroke-width="1" /><line x1="21.74074074074074" y1="239.66666666666669" x2="25.629629629629626" y2="246" stroke="red" stroke-width="1" /><line x1="25.629629629629626" y1="246" x2="29.88888888888889" y2="252.57894736842107" stroke="red" stroke-width="1" /><line x1="38.599999999999994" y1="58.142857142857146" x2="33.599999999999994" y2="64.42105263157895" stroke="red" stroke-width="1" /><line x1="33.599999999999994" y1="64.42105263157895" x2="29.88888888888889" y2="69.42105263157895" stroke="red" stroke-width="1" /><line x1="29.88888888888889" y1="252.57894736842107" x2="33.599999999999994" y2="257.57894736842104" stroke="red" stroke-width="1" /><line x1="33.599999999999994" y1="257.57894736842104" x2="38.599999999999994" y2="263.85714285714283" stroke="red" stroke-width="1" /><line x1="47.95652173913044" y1="47.95652173913044" x2="42.95652173913044" y2="53.142857142857146" stroke="red" stroke-width="1" /><line x1="42.95652173913044" y1="53.142857142857146" x2="38.599999999999994" y2="58.142857142857146" stroke="red" stroke-width="1" /><line x1="38.599999999999994" y1="263.85714285714283" x2="42.95652173913044" y2="268.85714285714283" stroke="red" stroke-width="1" /><line x1="42.95652173913044" y1="268.85714285714283" x2="47.95652173913044" y2="274.04347826086956" stroke="red" stroke-width="1" /><line x1="58.142857142857146" y1="38.599999999999994" x2="53.142857142857146" y2="42.95652173913044" stroke="red" stroke-width="1" /><line x1="53.142857142857146" y1="42.95652173913044" x2="47.95652173913044" y2="47.95652173913044" stroke="red" stroke-width="1" /><line x1="47.95652173913044" y1="274.04347826086956" x2="53.142857142857146" y2="279.04347826086956" stroke="red" stroke-width="1" /><line x1="53.142857142857146" y1="279.04347826086956" x2="58.142857142857146" y2="283.4" stroke="red" stroke-width="1" /><line x1="69.42105263157895" y1="29.88888888888889" x2="64.42105263157895" y2="33.599999999999994" stroke="red" stroke-width="1" /><line x1="64.42105263157895" y1="33.599999999999994" x2="58.142857142857146" y2="38.599999999999994" stroke="red" stroke-width="1" /><line x1="58.142857142857146" y1="283.4" x2="64.42105263157895" y2="288.4" stroke="red" stroke-width="1" /><line x1="64.42105263157895" y1="288.4" x2="69.42105263157895" y2="292.1111111111111" stroke="red" stroke-width="1" /><line x1="76" y1="25.629629629629626" x2="69.42105263157895" y2="29.88888888888889" stroke="red" stroke-width="1" /><line x1="69.42105263157895" y1="292.1111111111111" x2="76" y2="296.3703703703704" stroke="red" stroke-width="1" /><line x1="87.33333333333333" y1="19.103448275862068" x2="82.33333333333333" y2="21.74074074074074" stroke="red" stroke-width="1" /><line x1="82.33333333333333" y1="21.74074074074074" x2="76" y2="25.629629629629626" stroke="red" stroke-width="1" /><line x1="76" y1="296.3703703703704" x2="82.33333333333333" y2="300.2592592592593" stroke="red" stroke-width="1" /><line x1="82.33333333333333" y1="300.2592592592593" x2="87.33333333333333" y2="302.8965517241379" stroke="red" stroke-width="1" /><line x1="96" y1="14.96551724137931" x2="87.33333333333333" y2="19.103448275862068" stroke="red" stroke-width="1" /><line x1="87.33333333333333" y1="302.8965517241379" x2="96" y2="307.0344827586207" stroke="red" stroke-width="1" /><line x1="108.27272727272727" y1="10.032258064516128" x2="103.27272727272727" y2="11.862068965517242" stroke="red" stroke-width="1" /><line x1="103.27272727272727" y1="11.862068965517242" x2="96" y2="14.96551724137931" stroke="red" stroke-width="1" /><line x1="96" y1="307.0344827586207" x2="103.27272727272727" y2="310.1379310344828" stroke="red" stroke-width="1" /><line x1="103.27272727272727" y1="310.1379310344828" x2="108.27272727272727" y2="311.9677419354839" stroke="red" stroke-width="1" /><line x1="116" y1="7.612903225806451" x2="108.27272727272727" y2="10.032258064516128" stroke="red" stroke-width="1" /><line x1="108.27272727272727" y1="311.9677419354839" x2="116" y2="314.38709677419354" stroke="red" stroke-width="1" /><line x1="126" y1="5.032258064516129" x2="116" y2="7.612903225806451" stroke="red" stroke-width="1" /><line x1="116" y1="314.38709677419354" x2="126" y2="316.9677419354839" stroke="red" stroke-width="1" /><line x1="136" y1="3.096774193548387" x2="126" y2="5.032258064516129" stroke="red" stroke-width="1" /><line x1="126" y1="316.9677419354839" x2="136" y2="318.9032258064516" stroke="red" stroke-width="1" /><line x1="146" y1="1.8064516129032255" x2="136" y2="3.096774193548387" stroke="red" stroke-width="1" /><line x1="136" y1="318.9032258064516" x2="146" y2="320.19354838709677" stroke="red" stroke-width="1" /><line x1="156" y1="1.1612903225806452" x2="146" y2="1.8064516129032255" stroke="red" stroke-width="1" /><line x1="146" y1="320.19354838709677" x2="156" y2="320.8387096774194" stroke="red" stroke-width="1" /><line x1="176" y1="1.8064516129032255" x2="166" y2="1.1612903225806452" stroke="red" stroke-width="1" /><line x1="166" y1="320.8387096774194" x2="176" y2="320.19354838709677" stroke="red" stroke-width="1" /><line x1="186" y1="3.096774193548387" x2="176" y2="1.8064516129032255" stroke="red" stroke-width="1" /><line x1="176" y1="320.19354838709677" x2="186" y2="318.9032258064516" stroke="red" stroke-width="1" /><line x1="196" y1="5.032258064516129" x2="186" y2="3.096774193548387" stroke="red" stroke-width="1" /><line x1="186" y1="318.9032258064516" x2="196" y2="316.9677419354839" stroke="red" stroke-width="1" /><line x1="206" y1="7.612903225806451" x2="196" y2="5.032258064516129" stroke="red" stroke-width="1" /><line x1="196" y1="316.9677419354839" x2="206" y2="314.38709677419354" stroke="red" stroke-width="1" /><line x1="213.72727272727275" y1="10.032258064516128" x2="206" y2="7.612903225806451" stroke="red" stroke-width="1" /><line x1="218.72727272727275" y1="11.862068965517242" x2="213.72727272727275" y2="10.032258064516128" stroke="red" stroke-width="1" /><line x1="213.72727272727275" y1="311.9677419354839" x2="218.72727272727275" y2="310.1379310344828" stroke="red" stroke-width="1" /><line x1="206" y1="314.38709677419354" x2="213.72727272727275" y2="311.9677419354839" stroke="red" stroke-width="1" /><line x1="226" y1="14.96551724137931" x2="218.72727272727275" y2="11.862068965517242" stroke="red" stroke-width="1" /><line x1="218.72727272727275" y1="310.1379310344828" x2="226" y2="307.0344827586207" stroke="red" stroke-width="1" /><line x1="234.66666666666669" y1="19.103448275862068" x2="226" y2="14.96551724137931" stroke="red" stroke-width="1" /><line x1="239.66666666666669" y1="21.74074074074074" x2="234.66666666666669" y2="19.103448275862068" stroke="red" stroke-width="1" /><line x1="234.66666666666669" y1="302.8965517241379" x2="239.66666666666669" y2="300.2592592592593" stroke="red" stroke-width="1" /><line x1="226" y1="307.0344827586207" x2="234.66666666666669" y2="302.8965517241379" stroke="red" stroke-width="1" /><line x1="246" y1="25.629629629629626" x2="239.66666666666669" y2="21.74074074074074" stroke="red" stroke-width="1" /><line x1="239.66666666666669" y1="300.2592592592593" x2="246" y2="296.3703703703704" stroke="red" stroke-width="1" /><line x1="252.57894736842107" y1="29.88888888888889" x2="246" y2="25.629629629629626" stroke="red" stroke-width="1" /><line x1="257.57894736842104" y1="33.599999999999994" x2="252.57894736842107" y2="29.88888888888889" stroke="red" stroke-width="1" /><line x1="252.57894736842107" y1="292.1111111111111" x2="257.57894736842104" y2="288.4" stroke="red" stroke-width="1" /><line x1="246" y1="296.3703703703704" x2="252.57894736842107" y2="292.1111111111111" stroke="red" stroke-width="1" /><line x1="263.85714285714283" y1="38.599999999999994" x2="257.57894736842104" y2="33.599999999999994" stroke="red" stroke-width="1" /><line x1="268.85714285714283" y1="42.95652173913044" x2="263.85714285714283" y2="38.599999999999994" stroke="red" stroke-width="1" /><line x1="263.85714285714283" y1="283.4" x2="268.85714285714283" y2="279.04347826086956" stroke="red" stroke-width="1" /><line x1="257.57894736842104" y1="288.4" x2="263.85714285714283" y2="283.4" stroke="red" stroke-width="1" /><line x1="274.04347826086956" y1="47.95652173913044" x2="268.85714285714283" y2="42.95652173913044" stroke="red" stroke-width="1" /><line x1="279.04347826086956" y1="53.142857142857146" x2="274.04347826086956" y2="47.95652173913044" stroke="red" stroke-width="1" /><line x1="274.04347826086956" y1="274.04347826086956" x2="279.04347826086956" y2="268.85714285714283" stroke="red" stroke-width="1" /><line x1="268.85714285714283" y1="279.04347826086956" x2="274.04347826086956" y2="274.04347826086956" stroke="red" stroke-width="1" /><line x1="283.4" y1="58.142857142857146" x2="279.04347826086956" y2="53.142857142857146" stroke="red" stroke-width="1" /><line x1="288.4" y1="64.42105263157895" x2="283.4" y2="58.142857142857146" stroke="red" stroke-width="1" /><line x1="283.4" y1="263.85714285714283" x2="288.4" y2="257.57894736842104" stroke="red" stroke-width="1" /><line x1="279.04347826086956" y1="268.85714285714283" x2="283.4" y2="263.85714285714283" stroke="red" stroke-width="1" /><line x1="292.1111111111111" y1="69.42105263157895" x2="288.4" y2="64.42105263157895" stroke="red" stroke-width="1" /><line x1="296.3703703703704" y1="76" x2="292.1111111111111" y2="69.42105263157895" stroke="red" stroke-width="1" /><line x1="300.2592592592593" y1="82.33333333333333" x2="296.3703703703704" y2="76" stroke="red" stroke-width="1" /><line x1="296.3703703703704" y1="246" x2="300.2592592592593" y2="239.66666666666669" stroke="red" stroke-width="1" /><line x1="292.1111111111111" y1="252.57894736842107" x2="296.3703703703704" y2="246" stroke="red" stroke-width="1" /><line x1="288.4" y1="257.57894736842104" x2="292.1111111111111" y2="252.57894736842107" stroke="red" stroke-width="1" /><line x1="302.8965517241379" y1="87.33333333333333" x2="300.2592592592593" y2="82.33333333333333" stroke="red" stroke-width="1" /><line x1="307.0344827586207" y1="96" x2="302.8965517241379" y2="87.33333333333333" stroke="red" stroke-width="1" /><line x1="310.1379310344828" y1="103.27272727272727" x2="307.0344827586207" y2="96" stroke="red" stroke-width="1" /><line x1="307.0344827586207" y1="226" x2="310.1379310344828" y2="218.72727272727275" stroke="red" stroke-width="1" /><line x1="302.8965517241379" y1="234.66666666666669" x2="307.0344827586207" y2="226" stroke="red" stroke-width="1" /><line x1="300.2592592592593" y1="239.66666666666669" x2="302.8965517241379" y2="234.66666666666669" stroke="red" stroke-width="1" /><line x1="311.9677419354839" y1="108.27272727272727" x2="310.1379310344828" y2="103.27272727272727" stroke="red" stroke-width="1" /><line x1="314.38709677419354" y1="116" x2="311.9677419354839" y2="108.27272727272727" stroke="red" stroke-width="1" /><line x1="316.9677419354839" y1="126" x2="314.38709677419354" y2="116" stroke="red" stroke-width="1" /><line x1="318.9032258064516" y1="136" x2="316.9677419354839" y2="126" stroke="red" stroke-width="1" /><line x1="320.19354838709677" y1="146" x2="318.9032258064516" y2="136" stroke="red" stroke-width="1" /><line x1="320.8387096774194" y1="156" x2="320.19354838709677" y2="146" stroke="red" stroke-width="1" /><line x1="320.19354838709677" y1="176" x2="320.8387096774194" y2="166" stroke="red" stroke-width="1" /><line x1="318.9032258064516" y1="186" x2="320.19354838709677" y2="176" stroke="red" stroke-width="1" /><line x1="316.9677419354839" y1="196" x2="318.9032258064516" y2="186" stroke="red" stroke-width="1" /><line x1="314.38709677419354" y1="206" x2="316.9677419354839" y2="196" stroke="red" stroke-width="1" /><line x1="311.9677419354839" y1="213.72727272727275" x2="314.38709677419354" y2="206" stroke="red" stroke-width="1" /><line x1="310.1379310344828" y1="218.72727272727275" x2="311.9677419354839" y2="213.72727272727275" stroke="red" stroke-width="1" /><circle cx="10.032258064516128" cy="108.27272727272727" r="1" stroke="black" stroke-width="0.1" fill="black" /><circle cx="7.612903225806451" cy="116" r="1" stroke="black" stroke-width="0.1" fill="black" /><circle cx="5.032258064516129" cy="126" r="1" stroke="black" stroke-width="0.1" fill="black" /><circle cx="3.096774193548387" cy="136" r="1" stroke="black" stroke-width="0.1" fill="black" /><circle cx="1.8064516129032255" cy="146" r="1" stroke="black" stroke-width="0.1" fill="black" /><circle cx="1.1612903225806452" cy="156" r="1" stroke="black" stroke-width="0.1" fill="black" /><circle cx="1.1612903225806452" cy="166" r="1" stroke="black" stroke-width="0.1" fill="black" /><circle cx="1.8064516129032255" cy="176" r="1" stroke="black" stroke-width="0.1" fill="black" /><circle cx="3.096774193548387" cy="186" r="1" stroke="black" stroke-width="0.1" fill="black" /><circle cx="5.032258064516129" cy="196" r="1" stroke="black" stroke-width="0.1" fill="black" /><circle cx="7.612903225806451" cy="206" r="1" stroke="black" stroke-width="0.1" fill="black" /><circle cx="10.032258064516128" cy="213.72727272727275" r="1" stroke="black" stroke-width="0.1" fill="black" /><circle cx="19.103448275862068" cy="87.33333333333333" r="1" stroke="black" stroke-width="0.1" fill="black" /><circle cx="14.96551724137931" cy="96" r="1" stroke="black" stroke-width="0.1" fill="black" /><circle cx="11.862068965517242" cy="103.27272727272727" r="1" stroke="black" stroke-width="0.1" fill="black" /><circle cx="11.862068965517242" cy="218.72727272727275" r="1" stroke="black" stroke-width="0.1" fill="black" /><circle cx="14.96551724137931" cy="226" r="1" stroke="black" stroke-width="0.1" fill="black" /><circle cx="19.103448275862068" cy="234.66666666666669" r="1" stroke="black" stroke-width="0.1" fill="black" /><circle cx="29.88888888888889" cy="69.42105263157895" r="1" stroke="black" stroke-width="0.1" fill="black" /><circle cx="25.629629629629626" cy="76" r="1" stroke="black" stroke-width="0.1" fill="black" /><circle cx="21.74074074074074" cy="82.33333333333333" r="1" stroke="black" stroke-width="0.1" fill="black" /><circle cx="21.74074074074074" cy="239.66666666666669" r="1" stroke="black" stroke-width="0.1" fill="black" /><circle cx="25.629629629629626" cy="246" r="1" stroke="black" stroke-width="0.1" fill="black" /><circle cx="29.88888888888889" cy="252.57894736842107" r="1" stroke="black" stroke-width="0.1" fill="black" /><circle cx="38.599999999999994" cy="58.142857142857146" r="1" stroke="black" stroke-width="0.1" fill="black" /><circle cx="33.599999999999994" cy="64.42105263157895" r="1" stroke="black" stroke-width="0.1" fill="black" /><circle cx="33.599999999999994" cy="257.57894736842104" r="1" stroke="black" stroke-width="0.1" fill="black" /><circle cx="38.599999999999994" cy="263.85714285714283" r="1" stroke="black" stroke-width="0.1" fill="black" /><circle cx="47.95652173913044" cy="47.95652173913044" r="1" stroke="black" stroke-width="0.1" fill="black" /><circle cx="42.95652173913044" cy="53.142857142857146" r="1" stroke="black" stroke-width="0.1" fill="black" /><circle cx="42.95652173913044" cy="268.85714285714283" r="1" stroke="black" stroke-width="0.1" fill="black" /><circle cx="47.95652173913044" cy="274.04347826086956" r="1" stroke="black" stroke-width="0.1" fill="black" /><circle cx="58.142857142857146" cy="38.599999999999994" r="1" stroke="black" stroke-width="0.1" fill="black" /><circle cx="53.142857142857146" cy="42.95652173913044" r="1" stroke="black" stroke-width="0.1" fill="black" /><circle cx="53.142857142857146" cy="279.04347826086956" r="1" stroke="black" stroke-width="0.1" fill="black" /><circle cx="58.142857142857146" cy="283.4" r="1" stroke="black" stroke-width="0.1" fill="black" /><circle cx="69.42105263157895" cy="29.88888888888889" r="1" stroke="black" stroke-width="0.1" fill="black" /><circle cx="64.42105263157895" cy="33.599999999999994" r="1" stroke="black" stroke-width="0.1" fill="black" /><circle cx="64.42105263157895" cy="288.4" r="1" stroke="black" stroke-width="0.1" fill="black" /><circle cx="69.42105263157895" cy="292.1111111111111" r="1" stroke="black" stroke-width="0.1" fill="black" /><circle cx="76" cy="25.629629629629626" r="1" stroke="black" stroke-width="0.1" fill="black" /><circle cx="76" cy="296.3703703703704" r="1" stroke="black" stroke-width="0.1" fill="black" /><circle cx="87.33333333333333" cy="19.103448275862068" r="1" stroke="black" stroke-width="0.1" fill="black" /><circle cx="82.33333333333333" cy="21.74074074074074" r="1" stroke="black" stroke-width="0.1" fill="black" /><circle cx="82.33333333333333" cy="300.2592592592593" r="1" stroke="black" stroke-width="0.1" fill="black" /><circle cx="87.33333333333333" cy="302.8965517241379" r="1" stroke="black" stroke-width="0.1" fill="black" /><circle cx="96" cy="14.96551724137931" r="1" stroke="black" stroke-width="0.1" fill="black" /><circle cx="96" cy="307.0344827586207" r="1" stroke="black" stroke-width="0.1" fill="black" /><circle cx="108.27272727272727" cy="10.032258064516128" r="1" stroke="black" stroke-width="0.1" fill="black" /><circle cx="103.27272727272727" cy="11.862068965517242" r="1" stroke="black" stroke-width="0.1" fill="black" /><circle cx="103.27272727272727" cy="310.1379310344828" r="1" stroke="black" stroke-width="0.1" fill="black" /><circle cx="108.27272727272727" cy="311.9677419354839" r="1" stroke="black" stroke-width="0.1" fill="black" /><circle cx="116" cy="7.612903225806451" r="1" stroke="black" stroke-width="0.1" fill="black" /><circle cx="116" cy="314.38709677419354" r="1" stroke="black" stroke-width="0.1" fill="black" /><circle cx="126" cy="5.032258064516129" r="1" stroke="black" stroke-width="0.1" fill="black" /><circle cx="126" cy="316.9677419354839" r="1" stroke="black" stroke-width="0.1" fill="black" /><circle cx="136" cy="3.096774193548387" r="1" stroke="black" stroke-width="0.1" fill="black" /><circle cx="136" cy="318.9032258064516" r="1" stroke="black" stroke-width="0.1" fill="black" /><circle cx="146" cy="1.8064516129032255" r="1" stroke="black" stroke-width="0.1" fill="black" /><circle cx="146" cy="320.19354838709677" r="1" stroke="black" stroke-width="0.1" fill="black" /><circle cx="156" cy="1.1612903225806452" r="1" stroke="black" stroke-width="0.1" fill="black" /><circle cx="156" cy="320.8387096774194" r="1" stroke="black" stroke-width="0.1" fill="black" /><circle cx="166" cy="1.1612903225806452" r="1" stroke="black" stroke-width="0.1" fill="black" /><circle cx="166" cy="320.8387096774194" r="1" stroke="black" stroke-width="0.1" fill="black" /><circle cx="176" cy="1.8064516129032255" r="1" stroke="black" stroke-width="0.1" fill="black" /><circle cx="176" cy="320.19354838709677" r="1" stroke="black" stroke-width="0.1" fill="black" /><circle cx="186" cy="3.096774193548387" r="1" stroke="black" stroke-width="0.1" fill="black" /><circle cx="186" cy="318.9032258064516" r="1" stroke="black" stroke-width="0.1" fill="black" /><circle cx="196" cy="5.032258064516129" r="1" stroke="black" stroke-width="0.1" fill="black" /><circle cx="196" cy="316.9677419354839" r="1" stroke="black" stroke-width="0.1" fill="black" /><circle cx="206" cy="7.612903225806451" r="1" stroke="black" stroke-width="0.1" fill="black" /><circle cx="206" cy="314.38709677419354" r="1" stroke="black" stroke-width="0.1" fill="black" /><circle cx="213.72727272727275" cy="10.032258064516128" r="1" stroke="black" stroke-width="0.1" fill="black" /><circle cx="218.72727272727275" cy="11.862068965517242" r="1" stroke="black" stroke-width="0.1" fill="black" /><circle cx="218.72727272727275" cy="310.1379310344828" r="1" stroke="black" stroke-width="0.1" fill="black" /><circle cx="213.72727272727275" cy="311.9677419354839" r="1" stroke="black" stroke-width="0.1" fill="black" /><circle cx="226" cy="14.96551724137931" r="1" stroke="black" stroke-width="0.1" fill="black" /><circle cx="226" cy="307.0344827586207" r="1" stroke="black" stroke-width="0.1" fill="black" /><circle cx="234.66666666666669" cy="19.103448275862068" r="1" stroke="black" stroke-width="0.1" fill="black" /><circle cx="239.66666666666669" cy="21.74074074074074" r="1" stroke="black" stroke-width="0.1" fill="black" /><circle cx="239.66666666666669" cy="300.2592592592593" r="1" stroke="black" stroke-width="0.1" fill="black" /><circle cx="234.66666666666669" cy="302.8965517241379" r="1" stroke="black" stroke-width="0.1" fill="black" /><circle cx="246" cy="25.629629629629626" r="1" stroke="black" stroke-width="0.1" fill="black" /><circle cx="246" cy="296.3703703703704" r="1" stroke="black" stroke-width="0.1" fill="black" /><circle cx="252.57894736842107" cy="29.88888888888889" r="1" stroke="black" stroke-width="0.1" fill="black" /><circle cx="257.57894736842104" cy="33.599999999999994" r="1" stroke="black" stroke-width="0.1" fill="black" /><circle cx="257.57894736842104" cy="288.4" r="1" stroke="black" stroke-width="0.1" fill="black" /><circle cx="252.57894736842107" cy="292.1111111111111" r="1" stroke="black" stroke-width="0.1" fill="black" /><circle cx="263.85714285714283" cy="38.599999999999994" r="1" stroke="black" stroke-width="0.1" fill="black" /><circle cx="268.85714285714283" cy="42.95652173913044" r="1" stroke="black" stroke-width="0.1" fill="black" /><circle cx="268.85714285714283" cy="279.04347826086956" r="1" stroke="black" stroke-width="0.1" fill="black" /><circle cx="263.85714285714283" cy="283.4" r="1" stroke="black" stroke-width="0.1" fill="black" /><circle cx="274.04347826086956" cy="47.95652173913044" r="1" stroke="black" stroke-width="0.1" fill="black" /><circle cx="279.04347826086956" cy="53.142857142857146" r="1" stroke="black" stroke-width="0.1" fill="black" /><circle cx="279.04347826086956" cy="268.85714285714283" r="1" stroke="black" stroke-width="0.1" fill="black" /><circle cx="274.04347826086956" cy="274.04347826086956" r="1" stroke="black" stroke-width="0.1" fill="black" /><circle cx="283.4" cy="58.142857142857146" r="1" stroke="black" stroke-width="0.1" fill="black" /><circle cx="288.4" cy="64.42105263157895" r="1" stroke="black" stroke-width="0.1" fill="black" /><circle cx="288.4" cy="257.57894736842104" r="1" stroke="black" stroke-width="0.1" fill="black" /><circle cx="283.4" cy="263.85714285714283" r="1" stroke="black" stroke-width="0.1" fill="black" /><circle cx="292.1111111111111" cy="69.42105263157895" r="1" stroke="black" stroke-width="0.1" fill="black" /><circle cx="296.3703703703704" cy="76" r="1" stroke="black" stroke-width="0.1" fill="black" /><circle cx="300.2592592592593" cy="82.33333333333333" r="1" stroke="black" stroke-width="0.1" fill="black" /><circle cx="300.2592592592593" cy="239.66666666666669" r="1" stroke="black" stroke-width="0.1" fill="black" /><circle cx="296.3703703703704" cy="246" r="1" stroke="black" stroke-width="0.1" fill="black" /><circle cx="292.1111111111111" cy="252.57894736842107" r="1" stroke="black" stroke-width="0.1" fill="black" /><circle cx="302.8965517241379" cy="87.33333333333333" r="1" stroke="black" stroke-width="0.1" fill="black" /><circle cx="307.0344827586207" cy="96" r="1" stroke="black" stroke-width="0.1" fill="black" /><circle cx="310.1379310344828" cy="103.27272727272727" r="1" stroke="black" stroke-width="0.1" fill="black" /><circle cx="310.1379310344828" cy="218.72727272727275" r="1" stroke="black" stroke-width="0.1" fill="black" /><circle cx="307.0344827586207" cy="226" r="1" stroke="black" stroke-width="0.1" fill="black" /><circle cx="302.8965517241379" cy="234.66666666666669" r="1" stroke="black" stroke-width="0.1" fill="black" /><circle cx="311.9677419354839" cy="108.27272727272727" r="1" stroke="black" stroke-width="0.1" fill="black" /><circle cx="314.38709677419354" cy="116" r="1" stroke="black" stroke-width="0.1" fill="black" /><circle cx="316.9677419354839" cy="126" r="1" stroke="black" stroke-width="0.1" fill="black" /><circle cx="318.9032258064516" cy="136" r="1" stroke="black" stroke-width="0.1" fill="black" /><circle cx="320.19354838709677" cy="146" r="1" stroke="black" stroke-width="0.1" fill="black" /><circle cx="320.8387096774194" cy="156" r="1" stroke="black" stroke-width="0.1" fill="black" /><circle cx="320.8387096774194" cy="166" r="1" stroke="black" stroke-width="0.1" fill="black" /><circle cx="320.19354838709677" cy="176" r="1" stroke="black" stroke-width="0.1" fill="black" /><circle cx="318.9032258064516" cy="186" r="1" stroke="black" stroke-width="0.1" fill="black" /><circle cx="316.9677419354839" cy="196" r="1" stroke="black" stroke-width="0.1" fill="black" /><circle cx="314.38709677419354" cy="206" r="1" stroke="black" stroke-width="0.1" fill="black" /><circle cx="311.9677419354839" cy="213.72727272727275" r="1" stroke="black" stroke-width="0.1" fill="black" /></svg>