<svg xmlns="http://www.w3.org/2000/svg" width="320" height="320"><line x1="9.032258064516128" y1="107.27272727272727" x2="6.612903225806451" y2="115" style="stroke:rgb(255,0,0);stroke-width:1" /><line x1="6.612903225806451" y1="115" x2="4.032258064516129" y2="125" style="stroke:rgb(255,0,0);stroke-width:1" /><line x1="4.032258064516129" y1="125" x2="2.096774193548387" y2="135" style="stroke:rgb(255,0,0);stroke-width:1" /><line x1="2.096774193548387" y1="135" x2="0.8064516129032256" y2="145" style="stroke:rgb(255,0,0);stroke-width:1" /><line x1="0.8064516129032256" y1="145" x2="0.1612903225806453" y2="155" style="stroke:rgb(255,0,0);stroke-width:1" /><line x1="0.1612903225806453" y1="165" x2="0.8064516129032256" y2="175" style="stroke:rgb(255,0,0);stroke-width:1" /><line x1="0.8064516129032256" y1="175" x2="2.096774193548387" y2="185" style="stroke:rgb(255,0,0);stroke-width:1" /><line x1="2.096774193548387" y1="185" x2="4.032258064516129" y2="195" style="stroke:rgb(255,0,0);stroke-width:1" /><line x1="4.032258064516129" y1="195" x2="6.612903225806451" y2="205" style="stroke:rgb(255,0,0);stroke-width:1" /><line x1="6.612903225806451" y1="205" x2="9.032258064516128" y2="212.72727272727275" style="stroke:rgb(255,0,0);stroke-width:1" /><line x1="18.103448275862068" y1="86.33333333333333" x2="13.96551724137931" y2="95" style="stroke:rgb(255,0,0);stroke-width:1" /><line x1="13.96551724137931" y1="95" x2="10.862068965517242" y2="102.27272727272727" style="stroke:rgb(255,0,0);stroke-width:1" /><line x1="10.862068965517242" y1="102.27272727272727" x2="9.032258064516128" y2="107.27272727272727" style="stroke:rgb(255,0,0);stroke-width:1" /><line x1="9.032258064516128" y1="212.72727272727275" x2="10.862068965517242" y2="217.72727272727275" style="stroke:rgb(255,0,0);stroke-width:1" /><line x1="10.862068965517242" y1="217.72727272727275" x2="13.96551724137931" y2="225" style="stroke:rgb(255,0,0);stroke-width:1" /><line x1="13.96551724137931" y1="225" x2="18.103448275862068" y2="233.66666666666669" style="stroke:rgb(255,0,0);stroke-width:1" /><line x1="28.88888888888889" y1="68.42105263157895" x2="24.629629629629626" y2="75" style="stroke:rgb(255,0,0);stroke-width:1" /><line x1="24.629629629629626" y1="75" x2="20.74074074074074" y2="81.33333333333333" style="stroke:rgb(255,0,0);stroke-width:1" /><line x1="20.74074074074074" y1="81.33333333333333" x2="18.103448275862068" y2="86.33333333333333" style="stroke:rgb(255,0,0);stroke-width:1" /><line x1="18.103448275862068" y1="233.66666666666669" x2="20.74074074074074" y2="238.66666666666669" style="stroke:rgb(255,0,0);stroke-width:1" /><line x1="20.74074074074074" y1="238.66666666666669" x2="24.629629629629626" y2="245" style="stroke:rgb(255,0,0);stroke-width:1" /><line x1="24.629629629629626" y1="245" x2="28.88888888888889" y2="251.57894736842107" style="stroke:rgb(255,0,0);stroke-width:1" /><line x1="37.599999999999994" y1="57.142857142857146" x2="32.599999999999994" y2="63.421052631578945" style="stroke:rgb(255,0,0);stroke-width:1" /><line x1="32.599999999999994" y1="63.421052631578945" x2="28.88888888888889" y2="68.42105263157895" style="stroke:rgb(255,0,0);stroke-width:1" /><line x1="28.88888888888889" y1="251.57894736842107" x2="32.599999999999994" y2="256.57894736842104" style="stroke:rgb(255,0,0);stroke-width:1" /><line x1="32.599999999999994" y1="256.57894736842104" x2="37.599999999999994" y2="262.85714285714283" style="stroke:rgb(255,0,0);stroke-width:1" /><line x1="46.95652173913044" y1="46.95652173913044" x2="41.95652173913044" y2="52.142857142857146" style="stroke:rgb(255,0,0);stroke-width:1" /><line x1="41.95652173913044" y1="52.142857142857146" x2="37.599999999999994" y2="57.142857142857146" style="stroke:rgb(255,0,0);stroke-width:1" /><line x1="37.599999999999994" y1="262.85714285714283" x2="41.95652173913044" y2="267.85714285714283" style="stroke:rgb(255,0,0);stroke-width:1" /><line x1="41.95652173913044" y1="267.85714285714283" x2="46.95652173913044" y2="273.04347826086956" style="stroke:rgb(255,0,0);stroke-width:1" /><line x1="57.142857142857146" y1="37.599999999999994" x2="52.142857142857146" y2="41.95652173913044" style="stroke:rgb(255,0,0);stroke-width:1" /><line x1="52.142857142857146" y1="41.95652173913044" x2="46.95652173913044" y2="46.95652173913044" style="stroke:rgb(255,0,0);stroke-width:1" /><line x1="46.95652173913044" y1="273.04347826086956" x2="52.142857142857146" y2="278.04347826086956" style="stroke:rgb(255,0,0);stroke-width:1" /><line x1="52.142857142857146" y1="278.04347826086956" x2="57.142857142857146" y2="282.4" style="stroke:rgb(255,0,0);stroke-width:1" /><line x1="68.42105263157895" y1="28.88888888888889" x2="63.421052631578945" y2="32.599999999999994" style="stroke:rgb(255,0,0);stroke-width:1" /><line x1="63.421052631578945" y1="32.599999999999994" x2="57.142857142857146" y2="37.599999999999994" style="stroke:rgb(255,0,0);stroke-width:1" /><line x1="57.142857142857146" y1="282.4" x2="63.421052631578945" y2="287.4" style="stroke:rgb(255,0,0);stroke-width:1" /><line x1="63.421052631578945" y1="287.4" x2="68.42105263157895" y2="291.1111111111111" style="stroke:rgb(255,0,0);stroke-width:1" /><line x1="75" y1="24.629629629629626" x2="68.42105263157895" y2="28.88888888888889" style="stroke:rgb(255,0,0);stroke-width:1" /><line x1="68.42105263157895" y1="291.1111111111111" x2="75" y2="295.3703703703704" style="stroke:rgb(255,0,0);stroke-width:1" /><line x1="86.33333333333333" y1="18.103448275862068" x2="81.33333333333333" y2="20.74074074074074" style="stroke:rgb(255,0,0);stroke-width:1" /><line x1="81.33333333333333" y1="20.74074074074074" x2="75" y2="24.629629629629626" style="stroke:rgb(255,0,0);stroke-width:1" /><line x1="75" y1="295.3703703703704" x2="81.33333333333333" y2="299.2592592592593" style="stroke:rgb(255,0,0);stroke-width:1" /><line x1="81.33333333333333" y1="299.2592592592593" x2="86.33333333333333" y2="301.8965517241379" style="stroke:rgb(255,0,0);stroke-width:1" /><line x1="95" y1="13.96551724137931" x2="86.33333333333333" y2="18.103448275862068" style="stroke:rgb(255,0,0);stroke-width:1" /><line x1="86.33333333333333" y1="301.8965517241379" x2="95" y2="306.0344827586207" style="stroke:rgb(255,0,0);stroke-width:1" /><line x1="107.27272727272727" y1="9.032258064516128" x2="102.27272727272727" y2="10.862068965517242" style="stroke:rgb(255,0,0);stroke-width:1" /><line x1="102.27272727272727" y1="10.862068965517242" x2="95" y2="13.96551724137931" style="stroke:rgb(255,0,0);stroke-width:1" /><line x1="95" y1="306.0344827586207" x2="102.27272727272727" y2="309.1379310344828" style="stroke:rgb(255,0,0);stroke-width:1" /><line x1="115" y1="6.612903225806451" x2="107.27272727272727" y2="9.032258064516128" style="stroke:rgb(255,0,0);stroke-width:1" /><line x1="125" y1="4.032258064516129" x2="115" y2="6.612903225806451" style="stroke:rgb(255,0,0);stroke-width:1" /><line x1="135" y1="2.096774193548387" x2="125" y2="4.032258064516129" style="stroke:rgb(255,0,0);stroke-width:1" /><line x1="145" y1="0.8064516129032256" x2="135" y2="2.096774193548387" style="stroke:rgb(255,0,0);stroke-width:1" /><line x1="155" y1="0.1612903225806453" x2="145" y2="0.8064516129032256" style="stroke:rgb(255,0,0);stroke-width:1" /><line x1="175" y1="0.8064516129032256" x2="165" y2="0.1612903225806453" style="stroke:rgb(255,0,0);stroke-width:1" /><line x1="185" y1="2.096774193548387" x2="175" y2="0.8064516129032256" style="stroke:rgb(255,0,0);stroke-width:1" /><line x1="195" y1="4.032258064516129" x2="185" y2="2.096774193548387" style="stroke:rgb(255,0,0);stroke-width:1" /><line x1="205" y1="6.612903225806451" x2="195" y2="4.032258064516129" style="stroke:rgb(255,0,0);stroke-width:1" /><line x1="212.72727272727275" y1="9.032258064516128" x2="205" y2="6.612903225806451" style="stroke:rgb(255,0,0);stroke-width:1" /><line x1="217.72727272727275" y1="10.862068965517242" x2="212.72727272727275" y2="9.032258064516128" style="stroke:rgb(255,0,0);stroke-width:1" /><line x1="225" y1="13.96551724137931" x2="217.72727272727275" y2="10.862068965517242" style="stroke:rgb(255,0,0);stroke-width:1" /><line x1="217.72727272727275" y1="309.1379310344828" x2="225" y2="306.0344827586207" style="stroke:rgb(255,0,0);stroke-width:1" /><line x1="233.66666666666669" y1="18.103448275862068" x2="225" y2="13.96551724137931" style="stroke:rgb(255,0,0);stroke-width:1" /><line x1="238.66666666666669" y1="20.74074074074074" x2="233.66666666666669" y2="18.103448275862068" style="stroke:rgb(255,0,0);stroke-width:1" /><line x1="233.66666666666669" y1="301.8965517241379" x2="238.66666666666669" y2="299.2592592592593" style="stroke:rgb(255,0,0);stroke-width:1" /><line x1="225" y1="306.0344827586207" x2="233.66666666666669" y2="301.8965517241379" style="stroke:rgb(255,0,0);stroke-width:1" /><line x1="245" y1="24.629629629629626" x2="238.66666666666669" y2="20.74074074074074" style="stroke:rgb(255,0,0);stroke-width:1" /><line x1="238.66666666666669" y1="299.2592592592593" x2="245" y2="295.3703703703704" style="stroke:rgb(255,0,0);stroke-width:1" /><line x1="251.57894736842107" y1="28.88888888888889" x2="245" y2="24.629629629629626" style="stroke:rgb(255,0,0);stroke-width:1" /><line x1="256.57894736842104" y1="32.599999999999994" x2="251.57894736842107" y2="28.88888888888889" style="stroke:rgb(255,0,0);stroke-width:1" /><line x1="251.57894736842107" y1="291.1111111111111" x2="256.57894736842104" y2="287.4" style="stroke:rgb(255,0,0);stroke-width:1" /><line x1="245" y1="295.3703703703704" x2="251.57894736842107" y2="291.1111111111111" style="stroke:rgb(255,0,0);stroke-width:1" /><line x1="262.85714285714283" y1="37.599999999999994" x2="256.57894736842104" y2="32.599999999999994" style="stroke:rgb(255,0,0);stroke-width:1" /><line x1="267.85714285714283" y1="41.95652173913044" x2="262.85714285714283" y2="37.599999999999994" style="stroke:rgb(255,0,0);stroke-width:1" /><line x1="262.85714285714283" y1="282.4" x2="267.85714285714283" y2="278.04347826086956" style="stroke:rgb(255,0,0);stroke-width:1" /><line x1="256.57894736842104" y1="287.4" x2="262.85714285714283" y2="282.4" style="stroke:rgb(255,0,0);stroke-width:1" /><line x1="273.04347826086956" y1="46.95652173913044" x2="267.85714285714283" y2="41.95652173913044" style="stroke:rgb(255,0,0);stroke-width:1" /><line x1="278.04347826086956" y1="52.142857142857146" x2="273.04347826086956" y2="46.95652173913044" style="stroke:rgb(255,0,0);stroke-width:1" /><line x1="273.04347826086956" y1="273.04347826086956" x2="278.04347826086956" y2="267.85714285714283" style="stroke:rgb(255,0,0);stroke-width:1" /><line x1="267.85714285714283" y1="278.04347826086956" x2="273.04347826086956" y2="273.04347826086956" style="stroke:rgb(255,0,0);stroke-width:1" /><line x1="282.4" y1="57.142857142857146" x2="278.04347826086956" y2="52.142857142857146" style="stroke:rgb(255,0,0);stroke-width:1" /><line x1="287.4" y1="63.421052631578945" x2="282.4" y2="57.142857142857146" style="stroke:rgb(255,0,0);stroke-width:1" /><line x1="282.4" y1="262.85714285714283" x2="287.4" y2="256.57894736842104" style="stroke:rgb(255,0,0);stroke-width:1" /><line x1="278.04347826086956" y1="267.85714285714283" x2="282.4" y2="262.85714285714283" style="stroke:rgb(255,0,0);stroke-width:1" /><line x1="291.1111111111111" y1="68.42105263157895" x2="287.4" y2="63.421052631578945" style="stroke:rgb(255,0,0);stroke-width:1" /><line x1="295.3703703703704" y1="75" x2="291.1111111111111" y2="68.42105263157895" style="stroke:rgb(255,0,0);stroke-width:1" /><line x1="299.2592592592593" y1="81.33333333333333" x2="295.3703703703704" y2="75" style="stroke:rgb(255,0,0);stroke-width:1" /><line x1="295.3703703703704" y1="245" x2="299.2592592592593" y2="238.66666666666669" style="stroke:rgb(255,0,0);stroke-width:1" /><line x1="291.1111111111111" y1="251.57894736842107" x2="295.3703703703704" y2="245" style="stroke:rgb(255,0,0);stroke-width:1" /><line x1="287.4" y1="256.57894736842104" x2="291.1111111111111" y2="251.57894736842107" style="stroke:rgb(255,0,0);stroke-width:1" /><line x1="301.8965517241379" y1="86.33333333333333" x2="299.2592592592593" y2="81.33333333333333" style="stroke:rgb(255,0,0);stroke-width:1" /><line x1="306.0344827586207" y1="95" x2="301.8965517241379" y2="86.33333333333333" style="stroke:rgb(255,0,0);stroke-width:1" /><line x1="309.1379310344828" y1="102.27272727272727" x2="306.0344827586207" y2="95" style="stroke:rgb(255,0,0);stroke-width:1" /><line x1="306.0344827586207" y1="225" x2="309.1379310344828" y2="217.72727272727275" style="stroke:rgb(255,0,0);stroke-width:1" /><line x1="301.8965517241379" y1="233.66666666666669" x2="306.0344827586207" y2="225" style="stroke:rgb(255,0,0);stroke-width:1" /><line x1="299.2592592592593" y1="238.66666666666669" x2="301.8965517241379" y2="233.66666666666669" style="stroke:rgb(255,0,0);stroke-width:1" /><circle cx="9.032258064516128" cy="107.27272727272727" r="1" stroke="black" stroke-width="0.1" fill="black" /><circle cx="6.612903225806451" cy="115" r="1" stroke="black" stroke-width="0.1" fill="black" /><circle cx="4.032258064516129" cy="125" r="1" stroke="black" stroke-width="0.1" fill="black" /><circle cx="2.096774193548387" cy="135" r="1" stroke="black" stroke-width="0.1" fill="black" /><circle cx="0.8064516129032256" cy="145" r="1" stroke="black" stroke-width="0.1" fill="black" /><circle cx="0.1612903225806453" cy="155" r="1" stroke="black" stroke-width="0.1" fill="black" /><circle cx="0.1612903225806453" cy="165" r="1" stroke="black" stroke-width="0.1" fill="black" /><circle cx="0.8064516129032256" cy="175" r="1" stroke="black" stroke-width="0.1" fill="black" /><circle cx="2.096774193548387" cy="185" r="1" stroke="black" stroke-width="0.1" fill="black" /><circle cx="4.032258064516129" cy="195" r="1" stroke="black" stroke-width="0.1" fill="black" /><circle cx="6.612903225806451" cy="205" r="1" stroke="black" stroke-width="0.1" fill="black" /><circle cx="9.032258064516128" cy="212.72727272727275" r="1" stroke="black" stroke-width="0.1" fill="black" /><circle cx="18.103448275862068" cy="86.33333333333333" r="1" stroke="black" stroke-width="0.1" fill="black" /><circle cx="13.96551724137931" cy="95" r="1" stroke="black" stroke-width="0.1" fill="black" /><circle cx="10.862068965517242" cy="102.27272727272727" r="1" stroke="black" stroke-width="0.1" fill="black" /><circle cx="10.862068965517242" cy="217.72727272727275" r="1" stroke="black" stroke-width="0.1" fill="black" /><circle cx="13.96551724137931" cy="225" r="1" stroke="black" stroke-width="0.1" fill="black" /><circle cx="18.103448275862068" cy="233.66666666666669" r="1" stroke="black" stroke-width="0.1" fill="black" /><circle cx="28.88888888888889" cy="68.42105263157895" r="1" stroke="black" stroke-width="0.1" fill="black" /><circle cx="24.629629629629626" cy="75" r="1" stroke="black" stroke-width="0.1" fill="black" /><circle cx="20.74074074074074" cy="81.33333333333333" r="1" stroke="black" stroke-width="0.1" fill="black" /><circle cx="20.74074074074074" cy="238.66666666666669" r="1" stroke="black" stroke-width="0.1" fill="black" /><circle cx="24.629629629629626" cy="245" r="1" stroke="black" stroke-width="0.1" fill="black" /><circle cx="28.88888888888889" cy="251.57894736842107" r="1" stroke="black" stroke-width="0.1" fill="black" /><circle cx="37.599999999999994" cy="57.142857142857146" r="1" stroke="black" stroke-width="0.1" fill="black" /><circle cx="32.599999999999994" cy="63.421052631578945" r="1" stroke="black" stroke-width="0.1" fill="black" /><circle cx="32.599999999999994" cy="256.57894736842104" r="1" stroke="black" stroke-width="0.1" fill="black" /><circle cx="37.599999999999994" cy="262.85714285714283" r="1" stroke="black" stroke-width="0.1" fill="black" /><circle cx="46.95652173913044" cy="46.95652173913044" r="1" stroke="black" stroke-width="0.1" fill="black" /><circle cx="41.95652173913044" cy="52.142857142857146" r="1" stroke="black" stroke-width="0.1" fill="black" /><circle cx="41.95652173913044" cy="267.85714285714283" r="1" stroke="black" stroke-width="0.1" fill="black" /><circle cx="46.95652173913044" cy="273.04347826086956" r="1" stroke="black" stroke-width="0.1" fill="black" /><circle cx="57.142857142857146" cy="37.599999999999994" r="1" stroke="black" stroke-width="0.1" fill="black" /><circle cx="52.142857142857146" cy="41.95652173913044" r="1" stroke="black" stroke-width="0.1" fill="black" /><circle cx="52.142857142857146" cy="278.04347826086956" r="1" stroke="black" stroke-width="0.1" fill="black" /><circle cx="57.142857142857146" cy="282.4" r="1" stroke="black" stroke-width="0.1" fill="black" /><circle cx="68.42105263157895" cy="28.88888888888889" r="1" stroke="black" stroke-width="0.1" fill="black" /><circle cx="63.421052631578945" cy="32.599999999999994" r="1" stroke="black" stroke-width="0.1" fill="black" /><circle cx="63.421052631578945" cy="287.4" r="1" stroke="black" stroke-width="0.1" fill="black" /><circle cx="68.42105263157895" cy="291.1111111111111" r="1" stroke="black" stroke-width="0.1" fill="black" /><circle cx="75" cy="24.629629629629626" r="1" stroke="black" stroke-width="0.1" fill="black" /><circle cx="75" cy="295.3703703703704" r="1" stroke="black" stroke-width="0.1" fill="black" /><circle cx="86.33333333333333" cy="18.103448275862068" r="1" stroke="black" stroke-width="0.1" fill="black" /><circle cx="81.33333333333333" cy="20.74074074074074" r="1" stroke="black" stroke-width="0.1" fill="black" /><circle cx="81.33333333333333" cy="299.2592592592593" r="1" stroke="black" stroke-width="0.1" fill="black" /><circle cx="86.33333333333333" cy="301.8965517241379" r="1" stroke="black" stroke-width="0.1" fill="black" /><circle cx="95" cy="13.96551724137931" r="1" stroke="black" stroke-width="0.1" fill="black" /><circle cx="95" cy="306.0344827586207" r="1" stroke="black" stroke-width="0.1" fill="black" /><circle cx="107.27272727272727" cy="9.032258064516128" r="1" stroke="black" stroke-width="0.1" fill="black" /><circle cx="102.27272727272727" cy="10.862068965517242" r="1" stroke="black" stroke-width="0.1" fill="black" /><circle cx="102.27272727272727" cy="309.1379310344828" r="1" stroke="black" stroke-width="0.1" fill="black" /><circle cx="115" cy="6.612903225806451" r="1" stroke="black" stroke-width="0.1" fill="black" /><circle cx="125" cy="4.032258064516129" r="1" stroke="black" stroke-width="0.1" fill="black" /><circle cx="135" cy="2.096774193548387" r="1" stroke="black" stroke-width="0.1" fill="black" /><circle cx="145" cy="0.8064516129032256" r="1" stroke="black" stroke-width="0.1" fill="black" /><circle cx="155" cy="0.1612903225806453" r="1" stroke="black" stroke-width="0.1" fill="black" /><circle cx="165" cy="0.1612903225806453" r="1" stroke="black" stroke-width="0.1" fill="black" /><circle cx="175" cy="0.8064516129032256" r="1" stroke="black" stroke-width="0.1" fill="black" /><circle cx="185" cy="2.096774193548387" r="1" stroke="black" stroke-width="0.1" fill="black" /><circle cx="195" cy="4.032258064516129" r="1" stroke="black" stroke-width="0.1" fill="black" /><circle cx="205" cy="6.612903225806451" r="1" stroke="black" stroke-width="0.1" fill="black" /><circle cx="212.72727272727275" cy="9.032258064516128" r="1" stroke="black" stroke-width="0.1" fill="black" /><circle cx="217.72727272727275" cy="10.862068965517242" r="1" stroke="black" stroke-width="0.1" fill="black" /><circle cx="217.72727272727275" cy="309.1379310344828" r="1" stroke="black" stroke-width="0.1" fill="black" /><circle cx="225" cy="13.96551724137931" r="1" stroke="black" stroke-width="0.1" fill="black" /><circle cx="225" cy="306.0344827586207" r="1" stroke="black" stroke-width="0.1" fill="black" /><circle cx="233.66666666666669" cy="18.103448275862068" r="1" stroke="black" stroke-width="0.1" fill="black" /><circle cx="238.66666666666669" cy="20.74074074074074" r="1" stroke="black" stroke-width="0.1" fill="black" /><circle cx="238.66666666666669" cy="299.2592592592593" r="1" stroke="black" stroke-width="0.1" fill="black" /><circle cx="233.66666666666669" cy="301.8965517241379" r="1" stroke="black" stroke-width="0.1" fill="black" /><circle cx="245" cy="24.629629629629626" r="1" stroke="black" stroke-width="0.1" fill="black" /><circle cx="245" cy="295.3703703703704" r="1" stroke="black" stroke-width="0.1" fill="black" /><circle cx="251.57894736842107" cy="28.88888888888889" r="1" stroke="black" stroke-width="0.1" fill="black" /><circle cx="256.57894736842104" cy="32.599999999999994" r="1" stroke="black" stroke-width="0.1" fill="black" /><circle cx="256.57894736842104" cy="287.4" r="1" stroke="black" stroke-width="0.1" fill="black" /><circle cx="251.57894736842107" cy="291.1111111111111" r="1" stroke="black" stroke-width="0.1" fill="black" /><circle cx="262.85714285714283" cy="37.599999999999994" r="1" stroke="black" stroke-width="0.1" fill="black" /><circle cx="267.85714285714283" cy="41.95652173913044" r="1" stroke="black" stroke-width="0.1" fill="black" /><circle cx="267.85714285714283" cy="278.04347826086956" r="1" stroke="black" stroke-width="0.1" fill="black" /><circle cx="262.85714285714283" cy="282.4" r="1" stroke="black" stroke-width="0.1" fill="black" /><circle cx="273.04347826086956" cy="46.95652173913044" r="1" stroke="black" stroke-width="0.1" fill="black" /><circle cx="278.04347826086956" cy="52.142857142857146" r="1" stroke="black" stroke-width="0.1" fill="black" /><circle cx="278.04347826086956" cy="267.85714285714283" r="1" stroke="black" stroke-width="0.1" fill="black" /><circle cx="273.04347826086956" cy="273.04347826086956" r="1" stroke="black" stroke-width="0.1" fill="black" /><circle cx="282.4" cy="57.142857142857146" r="1" stroke="black" stroke-width="0.1" fill="black" /><circle cx="287.4" cy="63.421052631578945" r="1" stroke="black" stroke-width="0.1" fill="black" /><circle cx="287.4" cy="256.57894736842104" r="1" stroke="black" stroke-width="0.1" fill="black" /><circle cx="282.4" cy="262.85714285714283" r="1" stroke="black" stroke-width="0.1" fill="black" /><circle cx="291.1111111111111" cy="68.42105263157895" r="1" stroke="black" stroke-width="0.1" fill="black" /><circle cx="295.3703703703704" cy="75" r="1" stroke="black" stroke-width="0.1" fill="black" /><circle cx="299.2592592592593" cy="81.33333333333333" r="1" stroke="black" stroke-width="0.1" fill="black" /><circle cx="299.2592592592593" cy="238.66666666666669" r="1" stroke="black" stroke-width="0.1" fill="black" /><circle cx="295.3703703703704" cy="245" r="1" stroke="black" stroke-width="0.1" fill="black" /><circle cx="291.1111111111111" cy="251.57894736842107" r="1" stroke="black" stroke-width="0.1" fill="black" /><circle cx="301.8965517241379" cy="86.33333333333333" r="1" stroke="black" stroke-width="0.1" fill="black" /><circle cx="306.0344827586207" cy="95" r="1" stroke="black" stroke-width="0.1" fill="black" /><circle cx="309.1379310344828" cy="102.27272727272727" r="1" stroke="black" stroke-width="0.1" fill="black" /><circle cx="309.1379310344828" cy="217.72727272727275" r="1" stroke="black" stroke-width="0.1" fill="black" /><circle cx="306.0344827586207" cy="225" r="1" stroke="black" stroke-width="0.1" fill="black" /><circle cx="301.8965517241379" cy="233.66666666666669" r="1" stroke="black" stroke-width="0.1" fill="black" /><circle cx="160" cy="160" r="160" stroke="black" stroke-width="1" fill="none" /></svg>