<svg xmlns="http://www.w3.org/2000/svg" width="340" height="340"><line x1="16.61290322580645" y1="125" x2="19.032258064516128" y2="117.27272727272727" stroke="red" stroke-width="1" /><line x1="14.03225806451613" y1="135" x2="16.61290322580645" y2="125" stroke="red" stroke-width="1" /><line x1="12.096774193548388" y1="145" x2="14.03225806451613" y2="135" stroke="red" stroke-width="1" /><line x1="10.806451612903224" y1="155" x2="12.096774193548388" y2="145" stroke="red" stroke-width="1" /><line x1="10.161290322580644" y1="165" x2="10.806451612903224" y2="155" stroke="red" stroke-width="1" /><line x1="10.806451612903224" y1="185" x2="10.161290322580644" y2="175" stroke="red" stroke-width="1" /><line x1="12.096774193548388" y1="195" x2="10.806451612903224" y2="185" stroke="red" stroke-width="1" /><line x1="14.03225806451613" y1="205" x2="12.096774193548388" y2="195" stroke="red" stroke-width="1" /><line x1="16.61290322580645" y1="215" x2="14.03225806451613" y2="205" stroke="red" stroke-width="1" /><line x1="19.032258064516128" y1="222.72727272727275" x2="16.61290322580645" y2="215" stroke="red" stroke-width="1" /><line x1="23.96551724137931" y1="105" x2="28.103448275862068" y2="96.33333333333333" stroke="red" stroke-width="1" /><line x1="20.862068965517242" y1="112.27272727272727" x2="23.96551724137931" y2="105" stroke="red" stroke-width="1" /><line x1="19.032258064516128" y1="117.27272727272727" x2="20.862068965517242" y2="112.27272727272727" stroke="red" stroke-width="1" /><line x1="20.862068965517242" y1="227.72727272727275" x2="19.032258064516128" y2="222.72727272727275" stroke="red" stroke-width="1" /><line x1="23.96551724137931" y1="235" x2="20.862068965517242" y2="227.72727272727275" stroke="red" stroke-width="1" /><line x1="28.103448275862068" y1="243.66666666666669" x2="23.96551724137931" y2="235" stroke="red" stroke-width="1" /><line x1="34.629629629629626" y1="85" x2="38.888888888888886" y2="78.42105263157895" stroke="red" stroke-width="1" /><line x1="30.74074074074074" y1="91.33333333333333" x2="34.629629629629626" y2="85" stroke="red" stroke-width="1" /><line x1="28.103448275862068" y1="96.33333333333333" x2="30.74074074074074" y2="91.33333333333333" stroke="red" stroke-width="1" /><line x1="30.74074074074074" y1="248.66666666666669" x2="28.103448275862068" y2="243.66666666666669" stroke="red" stroke-width="1" /><line x1="34.629629629629626" y1="255" x2="30.74074074074074" y2="248.66666666666669" stroke="red" stroke-width="1" /><line x1="38.888888888888886" y1="261.57894736842104" x2="34.629629629629626" y2="255" stroke="red" stroke-width="1" /><line x1="42.599999999999994" y1="73.42105263157895" x2="47.599999999999994" y2="67.14285714285714" stroke="red" stroke-width="1" /><line x1="38.888888888888886" y1="78.42105263157895" x2="42.599999999999994" y2="73.42105263157895" stroke="red" stroke-width="1" /><line x1="42.599999999999994" y1="266.57894736842104" x2="38.888888888888886" y2="261.57894736842104" stroke="red" stroke-width="1" /><line x1="47.599999999999994" y1="272.85714285714283" x2="42.599999999999994" y2="266.57894736842104" stroke="red" stroke-width="1" /><line x1="51.95652173913044" y1="62.142857142857146" x2="56.95652173913044" y2="56.95652173913044" stroke="red" stroke-width="1" /><line x1="47.599999999999994" y1="67.14285714285714" x2="51.95652173913044" y2="62.142857142857146" stroke="red" stroke-width="1" /><line x1="51.95652173913044" y1="277.85714285714283" x2="47.599999999999994" y2="272.85714285714283" stroke="red" stroke-width="1" /><line x1="56.95652173913044" y1="283.04347826086956" x2="51.95652173913044" y2="277.85714285714283" stroke="red" stroke-width="1" /><line x1="62.142857142857146" y1="51.95652173913044" x2="67.14285714285714" y2="47.599999999999994" stroke="red" stroke-width="1" /><line x1="56.95652173913044" y1="56.95652173913044" x2="62.142857142857146" y2="51.95652173913044" stroke="red" stroke-width="1" /><line x1="62.142857142857146" y1="288.04347826086956" x2="56.95652173913044" y2="283.04347826086956" stroke="red" stroke-width="1" /><line x1="67.14285714285714" y1="292.4" x2="62.142857142857146" y2="288.04347826086956" stroke="red" stroke-width="1" /><line x1="73.42105263157895" y1="42.599999999999994" x2="78.42105263157895" y2="38.888888888888886" stroke="red" stroke-width="1" /><line x1="67.14285714285714" y1="47.599999999999994" x2="73.42105263157895" y2="42.599999999999994" stroke="red" stroke-width="1" /><line x1="73.42105263157895" y1="297.4" x2="67.14285714285714" y2="292.4" stroke="red" stroke-width="1" /><line x1="78.42105263157895" y1="301.1111111111111" x2="73.42105263157895" y2="297.4" stroke="red" stroke-width="1" /><line x1="78.42105263157895" y1="38.888888888888886" x2="85" y2="34.629629629629626" stroke="red" stroke-width="1" /><line x1="85" y1="305.3703703703704" x2="78.42105263157895" y2="301.1111111111111" stroke="red" stroke-width="1" /><line x1="91.33333333333333" y1="30.74074074074074" x2="96.33333333333333" y2="28.103448275862068" stroke="red" stroke-width="1" /><line x1="85" y1="34.629629629629626" x2="91.33333333333333" y2="30.74074074074074" stroke="red" stroke-width="1" /><line x1="91.33333333333333" y1="309.2592592592593" x2="85" y2="305.3703703703704" stroke="red" stroke-width="1" /><line x1="96.33333333333333" y1="311.8965517241379" x2="91.33333333333333" y2="309.2592592592593" stroke="red" stroke-width="1" /><line x1="96.33333333333333" y1="28.103448275862068" x2="105" y2="23.96551724137931" stroke="red" stroke-width="1" /><line x1="105" y1="316.0344827586207" x2="96.33333333333333" y2="311.8965517241379" stroke="red" stroke-width="1" /><line x1="112.27272727272727" y1="20.862068965517242" x2="117.27272727272727" y2="19.032258064516128" stroke="red" stroke-width="1" /><line x1="105" y1="23.96551724137931" x2="112.27272727272727" y2="20.862068965517242" stroke="red" stroke-width="1" /><line x1="112.27272727272727" y1="319.1379310344828" x2="105" y2="316.0344827586207" stroke="red" stroke-width="1" /><line x1="117.27272727272727" y1="320.96774193548384" x2="112.27272727272727" y2="319.1379310344828" stroke="red" stroke-width="1" /><line x1="117.27272727272727" y1="19.032258064516128" x2="125" y2="16.61290322580645" stroke="red" stroke-width="1" /><line x1="125" y1="323.3870967741936" x2="117.27272727272727" y2="320.96774193548384" stroke="red" stroke-width="1" /><line x1="125" y1="16.61290322580645" x2="135" y2="14.03225806451613" stroke="red" stroke-width="1" /><line x1="135" y1="325.96774193548384" x2="125" y2="323.3870967741936" stroke="red" stroke-width="1" /><line x1="135" y1="14.03225806451613" x2="145" y2="12.096774193548388" stroke="red" stroke-width="1" /><line x1="145" y1="327.9032258064516" x2="135" y2="325.96774193548384" stroke="red" stroke-width="1" /><line x1="145" y1="12.096774193548388" x2="155" y2="10.806451612903224" stroke="red" stroke-width="1" /><line x1="155" y1="329.1935483870968" x2="145" y2="327.9032258064516" stroke="red" stroke-width="1" /><line x1="155" y1="10.806451612903224" x2="165" y2="10.161290322580644" stroke="red" stroke-width="1" /><line x1="165" y1="329.8387096774194" x2="155" y2="329.1935483870968" stroke="red" stroke-width="1" /><line x1="175" y1="10.161290322580644" x2="185" y2="10.806451612903224" stroke="red" stroke-width="1" /><line x1="185" y1="329.1935483870968" x2="175" y2="329.8387096774194" stroke="red" stroke-width="1" /><line x1="185" y1="10.806451612903224" x2="195" y2="12.096774193548388" stroke="red" stroke-width="1" /><line x1="195" y1="327.9032258064516" x2="185" y2="329.1935483870968" stroke="red" stroke-width="1" /><line x1="195" y1="12.096774193548388" x2="205" y2="14.03225806451613" stroke="red" stroke-width="1" /><line x1="205" y1="325.96774193548384" x2="195" y2="327.9032258064516" stroke="red" stroke-width="1" /><line x1="205" y1="14.03225806451613" x2="215" y2="16.61290322580645" stroke="red" stroke-width="1" /><line x1="215" y1="323.3870967741936" x2="205" y2="325.96774193548384" stroke="red" stroke-width="1" /><line x1="215" y1="16.61290322580645" x2="222.72727272727275" y2="19.032258064516128" stroke="red" stroke-width="1" /><line x1="222.72727272727275" y1="19.032258064516128" x2="227.72727272727275" y2="20.862068965517242" stroke="red" stroke-width="1" /><line x1="227.72727272727275" y1="319.1379310344828" x2="222.72727272727275" y2="320.96774193548384" stroke="red" stroke-width="1" /><line x1="222.72727272727275" y1="320.96774193548384" x2="215" y2="323.3870967741936" stroke="red" stroke-width="1" /><line x1="227.72727272727275" y1="20.862068965517242" x2="235" y2="23.96551724137931" stroke="red" stroke-width="1" /><line x1="235" y1="316.0344827586207" x2="227.72727272727275" y2="319.1379310344828" stroke="red" stroke-width="1" /><line x1="235" y1="23.96551724137931" x2="243.66666666666669" y2="28.103448275862068" stroke="red" stroke-width="1" /><line x1="243.66666666666669" y1="28.103448275862068" x2="248.66666666666669" y2="30.74074074074074" stroke="red" stroke-width="1" /><line x1="248.66666666666669" y1="309.2592592592593" x2="243.66666666666669" y2="311.8965517241379" stroke="red" stroke-width="1" /><line x1="243.66666666666669" y1="311.8965517241379" x2="235" y2="316.0344827586207" stroke="red" stroke-width="1" /><line x1="248.66666666666669" y1="30.74074074074074" x2="255" y2="34.629629629629626" stroke="red" stroke-width="1" /><line x1="255" y1="305.3703703703704" x2="248.66666666666669" y2="309.2592592592593" stroke="red" stroke-width="1" /><line x1="255" y1="34.629629629629626" x2="261.57894736842104" y2="38.888888888888886" stroke="red" stroke-width="1" /><line x1="261.57894736842104" y1="38.888888888888886" x2="266.57894736842104" y2="42.599999999999994" stroke="red" stroke-width="1" /><line x1="266.57894736842104" y1="297.4" x2="261.57894736842104" y2="301.1111111111111" stroke="red" stroke-width="1" /><line x1="261.57894736842104" y1="301.1111111111111" x2="255" y2="305.3703703703704" stroke="red" stroke-width="1" /><line x1="266.57894736842104" y1="42.599999999999994" x2="272.85714285714283" y2="47.599999999999994" stroke="red" stroke-width="1" /><line x1="272.85714285714283" y1="47.599999999999994" x2="277.85714285714283" y2="51.95652173913044" stroke="red" stroke-width="1" /><line x1="277.85714285714283" y1="288.04347826086956" x2="272.85714285714283" y2="292.4" stroke="red" stroke-width="1" /><line x1="272.85714285714283" y1="292.4" x2="266.57894736842104" y2="297.4" stroke="red" stroke-width="1" /><line x1="277.85714285714283" y1="51.95652173913044" x2="283.04347826086956" y2="56.95652173913044" stroke="red" stroke-width="1" /><line x1="283.04347826086956" y1="56.95652173913044" x2="288.04347826086956" y2="62.142857142857146" stroke="red" stroke-width="1" /><line x1="288.04347826086956" y1="277.85714285714283" x2="283.04347826086956" y2="283.04347826086956" stroke="red" stroke-width="1" /><line x1="283.04347826086956" y1="283.04347826086956" x2="277.85714285714283" y2="288.04347826086956" stroke="red" stroke-width="1" /><line x1="288.04347826086956" y1="62.142857142857146" x2="292.4" y2="67.14285714285714" stroke="red" stroke-width="1" /><line x1="292.4" y1="67.14285714285714" x2="297.4" y2="73.42105263157895" stroke="red" stroke-width="1" /><line x1="297.4" y1="266.57894736842104" x2="292.4" y2="272.85714285714283" stroke="red" stroke-width="1" /><line x1="292.4" y1="272.85714285714283" x2="288.04347826086956" y2="277.85714285714283" stroke="red" stroke-width="1" /><line x1="297.4" y1="73.42105263157895" x2="301.1111111111111" y2="78.42105263157895" stroke="red" stroke-width="1" /><line x1="301.1111111111111" y1="78.42105263157895" x2="305.3703703703704" y2="85" stroke="red" stroke-width="1" /><line x1="305.3703703703704" y1="85" x2="309.2592592592593" y2="91.33333333333333" stroke="red" stroke-width="1" /><line x1="309.2592592592593" y1="248.66666666666669" x2="305.3703703703704" y2="255" stroke="red" stroke-width="1" /><line x1="305.3703703703704" y1="255" x2="301.1111111111111" y2="261.57894736842104" stroke="red" stroke-width="1" /><line x1="301.1111111111111" y1="261.57894736842104" x2="297.4" y2="266.57894736842104" stroke="red" stroke-width="1" /><line x1="309.2592592592593" y1="91.33333333333333" x2="311.8965517241379" y2="96.33333333333333" stroke="red" stroke-width="1" /><line x1="311.8965517241379" y1="96.33333333333333" x2="316.0344827586207" y2="105" stroke="red" stroke-width="1" /><line x1="316.0344827586207" y1="105" x2="319.1379310344828" y2="112.27272727272727" stroke="red" stroke-width="1" /><line x1="319.1379310344828" y1="227.72727272727275" x2="316.0344827586207" y2="235" stroke="red" stroke-width="1" /><line x1="316.0344827586207" y1="235" x2="311.8965517241379" y2="243.66666666666669" stroke="red" stroke-width="1" /><line x1="311.8965517241379" y1="243.66666666666669" x2="309.2592592592593" y2="248.66666666666669" stroke="red" stroke-width="1" /><line x1="319.1379310344828" y1="112.27272727272727" x2="320.96774193548384" y2="117.27272727272727" stroke="red" stroke-width="1" /><line x1="320.96774193548384" y1="117.27272727272727" x2="323.3870967741936" y2="125" stroke="red" stroke-width="1" /><line x1="323.3870967741936" y1="125" x2="325.96774193548384" y2="135" stroke="red" stroke-width="1" /><line x1="325.96774193548384" y1="135" x2="327.9032258064516" y2="145" stroke="red" stroke-width="1" /><line x1="327.9032258064516" y1="145" x2="329.1935483870968" y2="155" stroke="red" stroke-width="1" /><line x1="329.1935483870968" y1="155" x2="329.8387096774194" y2="165" stroke="red" stroke-width="1" /><line x1="329.8387096774194" y1="175" x2="329.1935483870968" y2="185" stroke="red" stroke-width="1" /><line x1="329.1935483870968" y1="185" x2="327.9032258064516" y2="195" stroke="red" stroke-width="1" /><line x1="327.9032258064516" y1="195" x2="325.96774193548384" y2="205" stroke="red" stroke-width="1" /><line x1="325.96774193548384" y1="205" x2="323.3870967741936" y2="215" stroke="red" stroke-width="1" /><line x1="323.3870967741936" y1="215" x2="320.96774193548384" y2="222.72727272727275" stroke="red" stroke-width="1" /><line x1="320.96774193548384" y1="222.72727272727275" x2="319.1379310344828" y2="227.72727272727275" stroke="red" stroke-width="1" /><circle cx="19.032258064516128" cy="117.27272727272727" r="1" stroke="black" stroke-width="0.1" fill="black" /><circle cx="16.61290322580645" cy="125" r="1" stroke="black" stroke-width="0.1" fill="black" /><circle cx="14.03225806451613" cy="135" r="1" stroke="black" stroke-width="0.1" fill="black" /><circle cx="12.096774193548388" cy="145" r="1" stroke="black" stroke-width="0.1" fill="black" /><circle cx="10.806451612903224" cy="155" r="1" stroke="black" stroke-width="0.1" fill="black" /><circle cx="10.161290322580644" cy="165" r="1" stroke="black" stroke-width="0.1" fill="black" /><circle cx="10.161290322580644" cy="175" r="1" stroke="black" stroke-width="0.1" fill="black" /><circle cx="10.806451612903224" cy="185" r="1" stroke="black" stroke-width="0.1" fill="black" /><circle cx="12.096774193548388" cy="195" r="1" stroke="black" stroke-width="0.1" fill="black" /><circle cx="14.03225806451613" cy="205" r="1" stroke="black" stroke-width="0.1" fill="black" /><circle cx="16.61290322580645" cy="215" r="1" stroke="black" stroke-width="0.1" fill="black" /><circle cx="19.032258064516128" cy="222.72727272727275" r="1" stroke="black" stroke-width="0.1" fill="black" /><circle cx="28.103448275862068" cy="96.33333333333333" r="1" stroke="black" stroke-width="0.1" fill="black" /><circle cx="23.96551724137931" cy="105" r="1" stroke="black" stroke-width="0.1" fill="black" /><circle cx="20.862068965517242" cy="112.27272727272727" r="1" stroke="black" stroke-width="0.1" fill="black" /><circle cx="20.862068965517242" cy="227.72727272727275" r="1" stroke="black" stroke-width="0.1" fill="black" /><circle cx="23.96551724137931" cy="235" r="1" stroke="black" stroke-width="0.1" fill="black" /><circle cx="28.103448275862068" cy="243.66666666666669" r="1" stroke="black" stroke-width="0.1" fill="black" /><circle cx="38.888888888888886" cy="78.42105263157895" r="1" stroke="black" stroke-width="0.1" fill="black" /><circle cx="34.629629629629626" cy="85" r="1" stroke="black" stroke-width="0.1" fill="black" /><circle cx="30.74074074074074" cy="91.33333333333333" r="1" stroke="black" stroke-width="0.1" fill="black" /><circle cx="30.74074074074074" cy="248.66666666666669" r="1" stroke="black" stroke-width="0.1" fill="black" /><circle cx="34.629629629629626" cy="255" r="1" stroke="black" stroke-width="0.1" fill="black" /><circle cx="38.888888888888886" cy="261.57894736842104" r="1" stroke="black" stroke-width="0.1" fill="black" /><circle cx="47.599999999999994" cy="67.14285714285714" r="1" stroke="black" stroke-width="0.1" fill="black" /><circle cx="42.599999999999994" cy="73.42105263157895" r="1" stroke="black" stroke-width="0.1" fill="black" /><circle cx="42.599999999999994" cy="266.57894736842104" r="1" stroke="black" stroke-width="0.1" fill="black" /><circle cx="47.599999999999994" cy="272.85714285714283" r="1" stroke="black" stroke-width="0.1" fill="black" /><circle cx="56.95652173913044" cy="56.95652173913044" r="1" stroke="black" stroke-width="0.1" fill="black" /><circle cx="51.95652173913044" cy="62.142857142857146" r="1" stroke="black" stroke-width="0.1" fill="black" /><circle cx="51.95652173913044" cy="277.85714285714283" r="1" stroke="black" stroke-width="0.1" fill="black" /><circle cx="56.95652173913044" cy="283.04347826086956" r="1" stroke="black" stroke-width="0.1" fill="black" /><circle cx="67.14285714285714" cy="47.599999999999994" r="1" stroke="black" stroke-width="0.1" fill="black" /><circle cx="62.142857142857146" cy="51.95652173913044" r="1" stroke="black" stroke-width="0.1" fill="black" /><circle cx="62.142857142857146" cy="288.04347826086956" r="1" stroke="black" stroke-width="0.1" fill="black" /><circle cx="67.14285714285714" cy="292.4" r="1" stroke="black" stroke-width="0.1" fill="black" /><circle cx="78.42105263157895" cy="38.888888888888886" r="1" stroke="black" stroke-width="0.1" fill="black" /><circle cx="73.42105263157895" cy="42.599999999999994" r="1" stroke="black" stroke-width="0.1" fill="black" /><circle cx="73.42105263157895" cy="297.4" r="1" stroke="black" stroke-width="0.1" fill="black" /><circle cx="78.42105263157895" cy="301.1111111111111" r="1" stroke="black" stroke-width="0.1" fill="black" /><circle cx="85" cy="34.629629629629626" r="1" stroke="black" stroke-width="0.1" fill="black" /><circle cx="85" cy="305.3703703703704" r="1" stroke="black" stroke-width="0.1" fill="black" /><circle cx="96.33333333333333" cy="28.103448275862068" r="1" stroke="black" stroke-width="0.1" fill="black" /><circle cx="91.33333333333333" cy="30.74074074074074" r="1" stroke="black" stroke-width="0.1" fill="black" /><circle cx="91.33333333333333" cy="309.2592592592593" r="1" stroke="black" stroke-width="0.1" fill="black" /><circle cx="96.33333333333333" cy="311.8965517241379" r="1" stroke="black" stroke-width="0.1" fill="black" /><circle cx="105" cy="23.96551724137931" r="1" stroke="black" stroke-width="0.1" fill="black" /><circle cx="105" cy="316.0344827586207" r="1" stroke="black" stroke-width="0.1" fill="black" /><circle cx="117.27272727272727" cy="19.032258064516128" r="1" stroke="black" stroke-width="0.1" fill="black" /><circle cx="112.27272727272727" cy="20.862068965517242" r="1" stroke="black" stroke-width="0.1" fill="black" /><circle cx="112.27272727272727" cy="319.1379310344828" r="1" stroke="black" stroke-width="0.1" fill="black" /><circle cx="117.27272727272727" cy="320.96774193548384" r="1" stroke="black" stroke-width="0.1" fill="black" /><circle cx="125" cy="16.61290322580645" r="1" stroke="black" stroke-width="0.1" fill="black" /><circle cx="125" cy="323.3870967741936" r="1" stroke="black" stroke-width="0.1" fill="black" /><circle cx="135" cy="14.03225806451613" r="1" stroke="black" stroke-width="0.1" fill="black" /><circle cx="135" cy="325.96774193548384" r="1" stroke="black" stroke-width="0.1" fill="black" /><circle cx="145" cy="12.096774193548388" r="1" stroke="black" stroke-width="0.1" fill="black" /><circle cx="145" cy="327.9032258064516" r="1" stroke="black" stroke-width="0.1" fill="black" /><circle cx="155" cy="10.806451612903224" r="1" stroke="black" stroke-width="0.1" fill="black" /><circle cx="155" cy="329.1935483870968" r="1" stroke="black" stroke-width="0.1" fill="black" /><circle cx="165" cy="10.161290322580644" r="1" stroke="black" stroke-width="0.1" fill="black" /><circle cx="165" cy="329.8387096774194" r="1" stroke="black" stroke-width="0.1" fill="black" /><circle cx="175" cy="10.161290322580644" r="1" stroke="black" stroke-width="0.1" fill="black" /><circle cx="175" cy="329.8387096774194" r="1" stroke="black" stroke-width="0.1" fill="black" /><circle cx="185" cy="10.806451612903224" r="1" stroke="black" stroke-width="0.1" fill="black" /><circle cx="185" cy="329.1935483870968" r="1" stroke="black" stroke-width="0.1" fill="black" /><circle cx="195" cy="12.096774193548388" r="1" stroke="black" stroke-width="0.1" fill="black" /><circle cx="195" cy="327.9032258064516" r="1" stroke="black" stroke-width="0.1" fill="black" /><circle cx="205" cy="14.03225806451613" r="1" stroke="black" stroke-width="0.1" fill="black" /><circle cx="205" cy="325.96774193548384" r="1" stroke="black" stroke-width="0.1" fill="black" /><circle cx="215" cy="16.61290322580645" r="1" stroke="black" stroke-width="0.1" fill="black" /><circle cx="215" cy="323.3870967741936" r="1" stroke="black" stroke-width="0.1" fill="black" /><circle cx="222.72727272727275" cy="19.032258064516128" r="1" stroke="black" stroke-width="0.1" fill="black" /><circle cx="227.72727272727275" cy="20.862068965517242" r="1" stroke="black" stroke-width="0.1" fill="black" /><circle cx="227.72727272727275" cy="319.1379310344828" r="1" stroke="black" stroke-width="0.1" fill="black" /><circle cx="222.72727272727275" cy="320.96774193548384" r="1" stroke="black" stroke-width="0.1" fill="black" /><circle cx="235" cy="23.96551724137931" r="1" stroke="black" stroke-width="0.1" fill="black" /><circle cx="235" cy="316.0344827586207" r="1" stroke="black" stroke-width="0.1" fill="black" /><circle cx="243.66666666666669" cy="28.103448275862068" r="1" stroke="black" stroke-width="0.1" fill="black" /><circle cx="248.66666666666669" cy="30.74074074074074" r="1" stroke="black" stroke-width="0.1" fill="black" /><circle cx="248.66666666666669" cy="309.2592592592593" r="1" stroke="black" stroke-width="0.1" fill="black" /><circle cx="243.66666666666669" cy="311.8965517241379" r="1" stroke="black" stroke-width="0.1" fill="black" /><circle cx="255" cy="34.629629629629626" r="1" stroke="black" stroke-width="0.1" fill="black" /><circle cx="255" cy="305.3703703703704" r="1" stroke="black" stroke-width="0.1" fill="black" /><circle cx="261.57894736842104" cy="38.888888888888886" r="1" stroke="black" stroke-width="0.1" fill="black" /><circle cx="266.57894736842104" cy="42.599999999999994" r="1" stroke="black" stroke-width="0.1" fill="black" /><circle cx="266.57894736842104" cy="297.4" r="1" stroke="black" stroke-width="0.1" fill="black" /><circle cx="261.57894736842104" cy="301.1111111111111" r="1" stroke="black" stroke-width="0.1" fill="black" /><circle cx="272.85714285714283" cy="47.599999999999994" r="1" stroke="black" stroke-width="0.1" fill="black" /><circle cx="277.85714285714283" cy="51.95652173913044" r="1" stroke="black" stroke-width="0.1" fill="black" /><circle cx="277.85714285714283" cy="288.04347826086956" r="1" stroke="black" stroke-width="0.1" fill="black" /><circle cx="272.85714285714283" cy="292.4" r="1" stroke="black" stroke-width="0.1" fill="black" /><circle cx="283.04347826086956" cy="56.95652173913044" r="1" stroke="black" stroke-width="0.1" fill="black" /><circle cx="288.04347826086956" cy="62.142857142857146" r="1" stroke="black" stroke-width="0.1" fill="black" /><circle cx="288.04347826086956" cy="277.85714285714283" r="1" stroke="black" stroke-width="0.1" fill="black" /><circle cx="283.04347826086956" cy="283.04347826086956" r="1" stroke="black" stroke-width="0.1" fill="black" /><circle cx="292.4" cy="67.14285714285714" r="1" stroke="black" stroke-width="0.1" fill="black" /><circle cx="297.4" cy="73.42105263157895" r="1" stroke="black" stroke-width="0.1" fill="black" /><circle cx="297.4" cy="266.57894736842104" r="1" stroke="black" stroke-width="0.1" fill="black" /><circle cx="292.4" cy="272.85714285714283" r="1" stroke="black" stroke-width="0.1" fill="black" /><circle cx="301.1111111111111" cy="78.42105263157895" r="1" stroke="black" stroke-width="0.1" fill="black" /><circle cx="305.3703703703704" cy="85" r="1" stroke="black" stroke-width="0.1" fill="black" /><circle cx="309.2592592592593" cy="91.33333333333333" r="1" stroke="black" stroke-width="0.1" fill="black" /><circle cx="309.2592592592593" cy="248.66666666666669" r="1" stroke="black" stroke-width="0.1" fill="black" /><circle cx="305.3703703703704" cy="255" r="1" stroke="black" stroke-width="0.1" fill="black" /><circle cx="301.1111111111111" cy="261.57894736842104" r="1" stroke="black" stroke-width="0.1" fill="black" /><circle cx="311.8965517241379" cy="96.33333333333333" r="1" stroke="black" stroke-width="0.1" fill="black" /><circle cx="316.0344827586207" cy="105" r="1" stroke="black" stroke-width="0.1" fill="black" /><circle cx="319.1379310344828" cy="112.27272727272727" r="1" stroke="black" stroke-width="0.1" fill="black" /><circle cx="319.1379310344828" cy="227.72727272727275" r="1" stroke="black" stroke-width="0.1" fill="black" /><circle cx="316.0344827586207" cy="235" r="1" stroke="black" stroke-width="0.1" fill="black" /><circle cx="311.8965517241379" cy="243.66666666666669" r="1" stroke="black" stroke-width="0.1" fill="black" /><circle cx="320.96774193548384" cy="117.27272727272727" r="1" stroke="black" stroke-width="0.1" fill="black" /><circle cx="323.3870967741936" cy="125" r="1" stroke="black" stroke-width="0.1" fill="black" /><circle cx="325.96774193548384" cy="135" r="1" stroke="black" stroke-width="0.1" fill="black" /><circle cx="327.9032258064516" cy="145" r="1" stroke="black" stroke-width="0.1" fill="black" /><circle cx="329.1935483870968" cy="155" r="1" stroke="black" stroke-width="0.1" fill="black" /><circle cx="329.8387096774194" cy="165" r="1" stroke="black" stroke-width="0.1" fill="black" /><circle cx="329.8387096774194" cy="175" r="1" stroke="black" stroke-width="0.1" fill="black" /><circle cx="329.1935483870968" cy="185" r="1" stroke="black" stroke-width="0.1" fill="black" /><circle cx="327.9032258064516" cy="195" r="1" stroke="black" stroke-width="0.1" fill="black" /><circle cx="325.96774193548384" cy="205" r="1" stroke="black" stroke-width="0.1" fill="black" /><circle cx="323.3870967741936" cy="215" r="1" stroke="black" stroke-width="0.1" fill="black" /><circle cx="320.96774193548384" cy="222.72727272727275" r="1" stroke="black" stroke-width="0.1" fill="black" /></svg>